<svg width="49" height="34" viewBox="0 0 49 34" fill="none" xmlns="http://www.w3.org/2000/svg">
<g id="Group 18">
<path id="Vector" d="M46.7031 13.8H2.29688C1.68771 13.8 1.10349 14.0424 0.672739 14.4737C0.241991 14.905 0 15.4901 0 16.1L0 31.4334C0 32.0434 0.241991 32.6284 0.672739 33.0597C1.10349 33.4911 1.68771 33.7334 2.29688 33.7334H46.7031C47.3123 33.7334 47.8965 33.4911 48.3273 33.0597C48.758 32.6284 49 32.0434 49 31.4334V16.1C49 15.4901 48.758 14.905 48.3273 14.4737C47.8965 14.0424 47.3123 13.8 46.7031 13.8ZM47.4688 31.4334C47.4688 31.6367 47.3881 31.8317 47.2445 31.9755C47.1009 32.1193 46.9062 32.2001 46.7031 32.2001H2.29688C2.09382 32.2001 1.89908 32.1193 1.7555 31.9755C1.61191 31.8317 1.53125 31.6367 1.53125 31.4334V16.1C1.53125 15.8967 1.61191 15.7017 1.7555 15.5579C1.89908 15.4142 2.09382 15.3334 2.29688 15.3334H46.7031C46.9062 15.3334 47.1009 15.4142 47.2445 15.5579C47.3881 15.7017 47.4688 15.8967 47.4688 16.1V31.4334Z" fill="white"/>
<path id="Vector_2" d="M35.2188 26.0667H33.6875V27.6H36.75V23H35.2188V26.0667Z" fill="white"/>
<path id="Vector_3" d="M36.75 29.1334H32.1562V30.6668H36.75V29.1334Z" fill="white"/>
<path id="Vector_4" d="M33.6875 23H6.125V24.5333H33.6875V23Z" fill="white"/>
<path id="Vector_5" d="M4.59375 23H3.0625V24.5333H4.59375V23Z" fill="white"/>
<path id="Vector_6" d="M4.59375 16.8667H3.0625V18.4H4.59375V16.8667Z" fill="white"/>
<path id="Vector_7" d="M6.125 26.0667H3.0625V27.6H6.125V26.0667Z" fill="white"/>
<path id="Vector_8" d="M7.65625 29.1334H3.0625V30.6668H7.65625V29.1334Z" fill="white"/>
<path id="Vector_9" d="M30.625 29.1334H9.1875V30.6668H30.625V29.1334Z" fill="white"/>
<path id="Vector_10" d="M32.1562 26.0667H7.65625V27.6H32.1562V26.0667Z" fill="white"/>
<path id="Vector_11" d="M36.75 19.9333H3.0625V21.4667H36.75V19.9333Z" fill="white"/>
<path id="Vector_12" d="M45.9375 19.9333H38.2812V21.4667H45.9375V19.9333Z" fill="white"/>
<path id="Vector_13" d="M36.75 16.8667H6.125V18.4H36.75V16.8667Z" fill="white"/>
<path id="Vector_14" d="M45.9375 23H38.2812V24.5333H45.9375V23Z" fill="white"/>
<path id="Vector_15" d="M42.875 27.6001H41.3438V29.1334H39.8125V30.6668H44.4062V29.1334H42.875V27.6001Z" fill="white"/>
<path id="Vector_16" d="M20.6719 10.7333H27.5625C28.9839 10.7333 30.3471 10.1679 31.3522 9.16147C32.3572 8.15503 32.9219 6.79 32.9219 5.36667C32.9219 3.94334 32.3572 2.57831 31.3522 1.57186C30.3471 0.565415 28.9839 0 27.5625 0H20.6719C19.2505 0 17.8873 0.565415 16.8822 1.57186C15.8771 2.57831 15.3125 3.94334 15.3125 5.36667C15.3125 6.79 15.8771 8.15503 16.8822 9.16147C17.8873 10.1679 19.2505 10.7333 20.6719 10.7333ZM31.3906 5.36667C31.3906 5.87007 31.2916 6.36854 31.0992 6.83362C30.9068 7.2987 30.6249 7.72129 30.2694 8.07724C29.9139 8.4332 29.4919 8.71556 29.0275 8.90821C28.563 9.10085 28.0652 9.2 27.5625 9.2H24.5V1.53333H27.5625C28.0652 1.53333 28.563 1.63249 29.0275 1.82513C29.4919 2.01777 29.9139 2.30013 30.2694 2.65609C30.6249 3.01205 30.9068 3.43463 31.0992 3.89971C31.2916 4.3648 31.3906 4.86327 31.3906 5.36667ZM20.6719 1.53333H22.9688V9.2H20.6719C19.6566 9.2 18.6829 8.79613 17.965 8.07724C17.2471 7.35835 16.8438 6.38333 16.8438 5.36667C16.8438 4.35 17.2471 3.37498 17.965 2.65609C18.6829 1.9372 19.6566 1.53333 20.6719 1.53333Z" fill="white"/>
<path id="Vector_17" d="M21.4375 4.6001H18.375V6.13343H21.4375V4.6001Z" fill="white"/>
</g>
</svg>
