<svg width="22" height="22" viewBox="0 0 22 22" fill="none" xmlns="http://www.w3.org/2000/svg">
<g id="Layer_1">
<g id="Group">
<path id="Vector" fill-rule="evenodd" clip-rule="evenodd" d="M10.9976 2.02533C5.71962 2.02533 1.43976 6.30429 1.43976 11.5831C1.43976 15.8059 4.17838 19.3886 7.97596 20.6524C8.45358 20.7409 8.62901 20.445 8.62901 20.1926C8.62901 19.9648 8.62023 19.2118 8.61608 18.4131C5.95708 18.9914 5.39601 17.2854 5.39601 17.2854C4.96119 16.1808 4.33482 15.8869 4.33482 15.8869C3.46756 15.2937 4.40019 15.3059 4.40019 15.3059C5.35985 15.3733 5.8653 16.291 5.8653 16.291C6.71774 17.7521 8.10119 17.3296 8.64668 17.0854C8.73248 16.4678 8.98006 16.046 9.25349 15.8073C7.13055 15.5657 4.89881 14.7461 4.89881 11.0838C4.89881 10.0404 5.27222 9.18779 5.88368 8.51843C5.78445 8.2776 5.45726 7.30556 5.97629 5.98897C5.97629 5.98897 6.77892 5.73224 8.60523 6.96881C9.36768 6.75701 10.1854 6.65081 10.9976 6.64712C11.8098 6.65081 12.6281 6.75701 13.3919 6.96881C15.2162 5.73224 16.0177 5.98897 16.0177 5.98897C16.5379 7.30556 16.2107 8.2776 16.1115 8.51843C16.7243 9.18779 17.0951 10.0404 17.0951 11.0838C17.0951 14.7549 14.8592 15.5631 12.7308 15.7998C13.0736 16.0964 13.379 16.678 13.379 17.5697C13.379 18.8485 13.3681 19.8778 13.3681 20.1926C13.3681 20.447 13.5401 20.7451 14.0245 20.6513C17.8201 19.386 20.5553 15.8046 20.5553 11.5831C20.5553 6.30429 16.276 2.02533 10.9976 2.02533Z" fill="black"/>
<path id="Vector_2" d="M5.05982 15.7481C5.03879 15.7957 4.96399 15.8099 4.89597 15.7773C4.82658 15.7461 4.78779 15.6814 4.81018 15.6338C4.83075 15.5849 4.90552 15.5713 4.97479 15.6039C5.04421 15.6352 5.0838 15.7005 5.05982 15.7481Z" fill="black"/>
<path id="Vector_3" d="M5.44698 16.18C5.40142 16.2221 5.31218 16.2026 5.25172 16.1358C5.18913 16.0691 5.17757 15.98 5.22382 15.9372C5.27082 15.895 5.35724 15.9147 5.41979 15.9814C5.48242 16.0488 5.4946 16.1372 5.44698 16.18Z" fill="black"/>
<path id="Vector_4" d="M5.82388 16.7304C5.76528 16.7712 5.66946 16.733 5.61024 16.648C5.55164 16.563 5.55166 16.461 5.61161 16.4201C5.67083 16.3793 5.7653 16.4161 5.82525 16.5004C5.88369 16.5868 5.88368 16.6888 5.82388 16.7304Z" fill="black"/>
<path id="Vector_5" d="M6.34009 17.2623C6.28766 17.32 6.17604 17.3044 6.09447 17.2256C6.01085 17.1486 5.98766 17.0392 6.04005 16.9814C6.09325 16.9236 6.20546 16.9398 6.28765 17.018C6.37065 17.095 6.39585 17.205 6.34009 17.2623Z" fill="black"/>
<path id="Vector_6" d="M7.05229 17.571C7.02913 17.6458 6.92173 17.6798 6.8135 17.648C6.70531 17.6152 6.6347 17.5276 6.65647 17.452C6.67886 17.3766 6.78686 17.3412 6.89583 17.3752C7.0039 17.4078 7.07468 17.4948 7.05229 17.571Z" fill="black"/>
<path id="Vector_7" d="M7.83455 17.6282C7.83715 17.707 7.74534 17.7725 7.63176 17.7738C7.51751 17.7764 7.42491 17.7127 7.42371 17.6351C7.42371 17.5554 7.51345 17.4908 7.62773 17.4888C7.74131 17.4867 7.83455 17.55 7.83455 17.6282Z" fill="black"/>
<path id="Vector_8" d="M8.56243 17.5044C8.57601 17.5813 8.49698 17.6602 8.38413 17.6813C8.27319 17.7017 8.17058 17.6541 8.15638 17.5779C8.14264 17.499 8.22296 17.4201 8.33382 17.3997C8.44683 17.38 8.54804 17.4262 8.56243 17.5044Z" fill="black"/>
</g>
</g>
</svg>
