<svg width="14" height="16" viewBox="0 0 14 16" fill="none" xmlns="http://www.w3.org/2000/svg">
<g id="icons">
<g id="Group 1">
<path id="password" d="M12 6.66819H9.33333H4V4.80152C4 3.40152 5 2.13485 6.4 2.00152C8 1.86819 9.33333 3.13485 9.33333 4.66819C9.33333 5.06819 9.6 5.33485 10 5.33485H10.6667C11.0667 5.33485 11.3333 5.06819 11.3333 4.66819C11.3333 2.13485 9.33333 0.0681879 6.8 0.00152124C4.2 -0.0651454 2 2.06819 2 4.66819V6.66819H1.33333C0.6 6.66819 0 7.26819 0 8.00152V12.6682C0 14.5349 1.46667 16.0015 3.33333 16.0015H10C11.8667 16.0015 13.3333 14.5349 13.3333 12.6682V8.00152C13.3333 7.26819 12.7333 6.66819 12 6.66819ZM7.33333 11.8015V12.6682C7.33333 13.0015 7 13.3349 6.66667 13.3349C6.33333 13.3349 6 13.0015 6 12.6682V11.8015C5.6 11.6015 5.33333 11.1349 5.33333 10.6682C5.33333 9.93485 5.93333 9.33485 6.66667 9.33485C7.4 9.33485 8 9.93485 8 10.6682C8 11.1349 7.73333 11.6015 7.33333 11.8015Z" fill="black"/>
</g>
</g>
</svg>
