<svg width="18" height="18" viewBox="0 0 18 18" fill="none" xmlns="http://www.w3.org/2000/svg">
<path id="Vector" d="M9 0C4.02975 0 0 4.02938 0 9C0 13.9706 4.02975 18 9 18C13.971 18 18 13.9706 18 9C18 4.02938 13.971 0 9 0ZM9 5.14237C10.0534 5.14237 10.9065 5.9955 10.9065 7.0485C10.9065 8.10188 10.0534 8.955 9 8.955C7.94737 8.955 7.09387 8.10188 7.09387 7.0485C7.09387 5.9955 7.94737 5.14237 9 5.14237ZM12.2183 14.1337C11.2841 14.7101 10.1873 15.0484 9.00863 15.0484C7.82325 15.0484 6.71962 14.706 5.78212 14.1232V10.2472C5.78212 9.90825 6.057 9.633 6.39637 9.633H11.6044C11.9434 9.633 12.2186 9.90788 12.2186 10.2472L12.2183 14.1337Z" fill="#231F20"/>
</svg>
